<svg width="17" height="16" viewBox="0 0 17 16" fill="none" xmlns="http://www.w3.org/2000/svg">
<path opacity="0.32" d="M1.8335 5.99992V8.66659V8.66659C1.8335 10.1481 1.8335 13.1851 5.53721 13.1851C7.01869 13.1851 7.01868 14.6666 8.50016 14.6666C9.98164 14.6666 9.98164 13.1851 11.4631 13.1851C15.1668 13.1851 15.1668 10.1481 15.1668 8.66659L15.1668 5.99992C15.1668 4.33325 15.1668 1.33325 9.8335 1.33325H7.16683C1.8335 1.33325 1.8335 4.33325 1.8335 5.99992Z" fill="#FF0000"/>
<path fill-rule="evenodd" clip-rule="evenodd" d="M6 6C6 5.72386 6.22386 5.5 6.5 5.5H10.5C10.7761 5.5 11 5.72386 11 6C11 6.27614 10.7761 6.5 10.5 6.5H6.5C6.22386 6.5 6 6.27614 6 6Z" fill="#FF0000"/>
<path fill-rule="evenodd" clip-rule="evenodd" d="M6 8.66675C6 8.39061 6.22386 8.16675 6.5 8.16675H10.5C10.7761 8.16675 11 8.39061 11 8.66675C11 8.94289 10.7761 9.16675 10.5 9.16675H6.5C6.22386 9.16675 6 8.94289 6 8.66675Z" fill="#FF0000"/>
</svg>
