<svg width="133" height="132" viewBox="0 0 133 132" fill="none" xmlns="http://www.w3.org/2000/svg">
<rect x="0.5" y="0.5" width="132" height="131" rx="65.5" fill="#FFF3F8"/>
<g clip-path="url(#clip0_15_4231)">
<path opacity="0.32" fill-rule="evenodd" clip-rule="evenodd" d="M45.2837 75C45.5665 80.6191 46.6975 94.6667 63.6635 94.6667H69.3189C86.2849 94.6667 87.4159 80.6191 87.6987 75L88.7932 57.6002C71.8715 54.584 61.4372 54.5704 44.2065 57.6036C44.5636 63.0388 45.1009 71.3676 45.2837 75Z" fill="#C30052"/>
<path fill-rule="evenodd" clip-rule="evenodd" d="M61.1665 64C62.2711 64 63.1665 64.8954 63.1665 66L63.1665 76.6667C63.1665 77.7712 62.2711 78.6667 61.1665 78.6667C60.0619 78.6667 59.1665 77.7712 59.1665 76.6667L59.1665 66C59.1665 64.8954 60.0619 64 61.1665 64Z" fill="#C30052"/>
<path fill-rule="evenodd" clip-rule="evenodd" d="M71.8335 64C72.9381 64 73.8335 64.8954 73.8335 66V76.6667C73.8335 77.7712 72.9381 78.6667 71.8335 78.6667C70.7289 78.6667 69.8335 77.7712 69.8335 76.6667V66C69.8335 64.8954 70.7289 64 71.8335 64Z" fill="#C30052"/>
<path fill-rule="evenodd" clip-rule="evenodd" d="M53.9123 48.8249C50.2895 49.2698 46.4251 49.895 42.1309 50.701C41.0453 50.9048 40.3304 51.95 40.5342 53.0357C40.738 54.1213 41.7832 54.8361 42.8688 54.6324C61.6168 51.1134 71.726 51.1321 90.1262 54.6315C91.2113 54.8379 92.2583 54.1255 92.4647 53.0404C92.671 51.9553 91.9587 50.9083 90.8735 50.7019C86.5831 49.886 82.7197 49.2544 79.0855 48.8077C79.0582 48.5681 79.0216 48.2984 78.9726 48.0045C78.7841 46.8736 78.4034 45.335 77.622 43.7723C76.8367 42.2017 75.6273 40.5703 73.7759 39.3359C71.9119 38.0933 69.5165 37.3334 66.4999 37.3334C63.4833 37.3334 61.0879 38.0933 59.2239 39.3359C57.3724 40.5703 56.1631 42.2017 55.3778 43.7723C54.5964 45.335 54.2156 46.8736 54.0271 48.0045C53.977 48.3054 53.9398 48.581 53.9123 48.8249Z" fill="#C30052"/>
</g>
<defs>
<clipPath id="clip0_15_4231">
<rect width="64" height="64" fill="white" transform="translate(34.5 34)"/>
</clipPath>
</defs>
</svg>
