<svg width="28" height="29" viewBox="0 0 28 29" fill="none" xmlns="http://www.w3.org/2000/svg">
<g clip-path="url(#clip0_2082_1103)" filter="url(#filter0_d_2082_1103)">
<path fill-rule="evenodd" clip-rule="evenodd" d="M5.50464 6.95778C6.17575 6.24503 7.15917 5.58886 8.26045 5.04476L8.86424 5.40704L8.87633 5.41429L8.88868 5.42108L17.9921 10.428C16.657 11.2 15.2463 11.7639 14.0001 11.7639C12.2457 11.7639 10.1654 10.6462 8.42871 9.40392C7.58144 8.79783 6.85394 8.19015 6.33802 7.73354C6.08049 7.50561 5.87674 7.31627 5.73831 7.18485C5.66912 7.11916 5.61633 7.06801 5.58137 7.03383L5.54252 6.9956L5.53348 6.98662L5.53161 6.98475L5.53045 6.98359L5.50464 6.95778ZM9.98983 4.3148L19.428 9.50577C19.4761 9.47193 19.5239 9.43797 19.5715 9.40392C20.4188 8.79783 21.1463 8.19015 21.6622 7.73354C21.9197 7.50561 22.1235 7.31627 22.2619 7.18485C22.3311 7.11916 22.3839 7.06801 22.4189 7.03383L22.4577 6.9956L22.4668 6.98662L22.4686 6.98475L22.4698 6.98359L22.5113 6.94203C20.6887 5.10568 16.5333 3.51392 13.9624 3.51392C12.835 3.51392 11.398 3.81307 9.98983 4.3148Z" fill="#222C60"/>
<path opacity="0.32" fill-rule="evenodd" clip-rule="evenodd" d="M14.75 23.4754V13.216C16.0272 13.0571 17.3243 12.5196 18.5 11.8649V13.7639C18.5 14.1781 18.8358 14.5139 19.25 14.5139C19.6642 14.5139 20 14.1781 20 13.7639V10.9341C20.1522 10.8304 20.3004 10.7267 20.4441 10.6239C21.3443 9.97999 22.1129 9.33767 22.6562 8.85679C22.9283 8.61597 23.145 8.41468 23.2946 8.27267L23.3542 8.21582C24.2487 10.6558 24.214 16.9274 23.2498 19.0695C22.3266 21.1207 17.7829 23.1718 14.75 23.4754Z" fill="#222C60"/>
<path opacity="0.32" fill-rule="evenodd" clip-rule="evenodd" d="M13.25 13.2159C11.211 12.9622 9.12126 11.7436 7.55588 10.6238C6.65574 9.97991 5.88712 9.33759 5.34377 8.85671C5.07168 8.61589 4.85501 8.4146 4.70542 8.27258L4.68141 8.24976C3.77095 10.7027 3.73558 16.7882 4.80175 19.0694C5.72082 21.1113 10.1843 23.1533 13.25 23.4711V13.2159Z" fill="#222C60"/>
<path fill-rule="evenodd" clip-rule="evenodd" d="M6.46921 13.8921C6.71868 13.5614 7.18897 13.4956 7.51963 13.7451C8.04435 14.141 8.42658 14.3825 8.79563 14.5538C9.16118 14.7235 9.54356 14.8382 10.0835 14.9495C10.4892 15.0331 10.7503 15.4298 10.6667 15.8354C10.5831 16.2411 10.1864 16.5022 9.78073 16.4186C9.17579 16.2939 8.67159 16.15 8.16402 15.9144C7.65994 15.6804 7.18252 15.3698 6.6162 14.9425C6.28554 14.693 6.21973 14.2227 6.46921 13.8921Z" fill="#222C60"/>
</g>
<defs>
<filter id="filter0_d_2082_1103" x="-2" y="-1.48608" width="32" height="32" filterUnits="userSpaceOnUse" color-interpolation-filters="sRGB">
<feFlood flood-opacity="0" result="BackgroundImageFix"/>
<feColorMatrix in="SourceAlpha" type="matrix" values="0 0 0 0 0 0 0 0 0 0 0 0 0 0 0 0 0 0 127 0" result="hardAlpha"/>
<feOffset dy="1"/>
<feGaussianBlur stdDeviation="2"/>
<feComposite in2="hardAlpha" operator="out"/>
<feColorMatrix type="matrix" values="0 0 0 0 0 0 0 0 0 0 0 0 0 0 0 0 0 0 0.25 0"/>
<feBlend mode="normal" in2="BackgroundImageFix" result="effect1_dropShadow_2082_1103"/>
<feBlend mode="normal" in="SourceGraphic" in2="effect1_dropShadow_2082_1103" result="shape"/>
</filter>
<clipPath id="clip0_2082_1103">
<rect width="24" height="24" fill="white" transform="translate(2 1.51392)"/>
</clipPath>
</defs>
</svg>
