<svg width="24" height="25" viewBox="0 0 24 25" fill="none" xmlns="http://www.w3.org/2000/svg">
<g clip-path="url(#clip0_2082_5636)">
<path opacity="0.32" d="M2 11.5137V13.5137C2 17.0137 2 22.5137 10 22.5137H14C22 22.5137 22 17.0137 22 13.5137L22 11.5137C22 8.01367 22 2.51367 14 2.51367H10C2 2.51367 2 8.01367 2 11.5137Z" fill="#A0A3BD"/>
<path fill-rule="evenodd" clip-rule="evenodd" d="M12.25 15.5137C12.25 15.0995 12.5858 14.7637 13 14.7637L17 14.7637C17.4142 14.7637 17.75 15.0995 17.75 15.5137C17.75 15.9279 17.4142 16.2637 17 16.2637H13C12.5858 16.2637 12.25 15.9279 12.25 15.5137Z" fill="#222C60"/>
<path fill-rule="evenodd" clip-rule="evenodd" d="M6.39918 9.06479C6.64712 8.73298 7.1171 8.66498 7.44891 8.91291L9.75938 10.6393L9.77493 10.6523C10.3619 11.1424 10.75 11.7829 10.75 12.5137C10.75 13.2445 10.3619 13.885 9.77493 14.3751L9.75938 14.3881L7.44891 16.1145C7.1171 16.3625 6.64712 16.2945 6.39918 15.9626C6.15125 15.6308 6.21924 15.1608 6.55106 14.9129L8.82791 13.2116C9.16979 12.9212 9.24998 12.6735 9.24998 12.5137C9.24998 12.3539 9.16979 12.1062 8.82791 11.8158L6.55106 10.1145C6.21924 9.86659 6.15125 9.39661 6.39918 9.06479Z" fill="#A0A3BD"/>
</g>
<defs>
<clipPath id="clip0_2082_5636">
<rect width="24" height="24" fill="white" transform="translate(0 0.513672)"/>
</clipPath>
</defs>
</svg>
