<svg width="24" height="24" viewBox="0 0 24 24" fill="none" xmlns="http://www.w3.org/2000/svg">
<path d="M3 8.5C3 10.9853 5.01472 13 7.5 13C9.98528 13 12 10.9853 12 8.5C12 6.01472 9.98528 4 7.5 4C5.01472 4 3 6.01472 3 8.5Z" fill="#222C60"/>
<path fill-rule="evenodd" clip-rule="evenodd" d="M12.8386 11.1169C13.2604 10.3387 13.4999 9.44731 13.4999 8.5C13.4999 7.55269 13.2604 6.66132 12.8386 5.88313C13.0794 5.54692 13.3652 5.24525 13.6874 4.98698C13.8645 4.84506 14.0524 4.71625 14.2499 4.60202C14.9118 4.21914 15.6803 4 16.4999 4C18.9852 4 20.9999 6.01472 20.9999 8.5C20.9999 10.9853 18.9852 13 16.4999 13C15.6803 13 14.9118 12.7809 14.2499 12.398C14.0524 12.2837 13.8645 12.1549 13.6874 12.013C13.3652 11.7548 13.0794 11.4531 12.8386 11.1169Z" fill="#222C60"/>
<path opacity="0.32" fill-rule="evenodd" clip-rule="evenodd" d="M4.50168 13.4074C5.37469 13.9419 6.40136 14.25 7.5 14.25C8.60557 14.25 9.63827 13.938 10.5148 13.3972C11.6791 14.1019 12.3691 15.2076 12.7782 16.3197C13.3736 18.1598 12.7205 20 11.4142 20H3.57692C2.27065 20 1.61763 18.1598 2.23442 16.3197C2.64908 15.2129 3.34243 14.1125 4.50168 13.4074Z" fill="#222C60"/>
<path opacity="0.32" fill-rule="evenodd" clip-rule="evenodd" d="M13.5272 20H20.4141C21.7204 20 22.3735 18.1598 21.7781 16.3197C21.369 15.2076 20.6789 14.1019 19.5147 13.3972C18.6382 13.938 17.6055 14.25 16.4999 14.25C15.4013 14.25 14.3746 13.9419 13.5016 13.4074C13.2777 13.5436 13.0711 13.6945 12.8806 13.8574C13.3784 14.5237 13.738 15.2762 13.9978 16.031C14.4801 17.6238 14.2415 19.2165 13.5272 20Z" fill="#222C60"/>
</svg>
